<?xml version="1.0" encoding="utf-8"?>
<!-- Generator: Adobe Illustrator 24.3.0, SVG Export Plug-In . SVG Version: 6.00 Build 0)  -->
<svg version="1.1" id="Layer_1" xmlns="http://www.w3.org/2000/svg" xmlns:xlink="http://www.w3.org/1999/xlink" x="0px" y="0px"
	 viewBox="0 0 743.16 743.16" style="enable-background:new 0 0 743.16 743.16;" xml:space="preserve">
<style type="text/css">
	.st0{fill:#EF4D63;}
</style>
<g>
	<path class="st0" d="M372.29,21.04c187.58-1.22,351.37,151.53,350.47,352.17c-0.86,192.1-155.24,350.2-354.13,348.92
		C173.68,720.87,15.75,561.43,20.5,361.95C24.98,173.67,181.09,19.46,372.29,21.04z M108.88,312.78
		c2.05,17.62,3.01,35.45,6.31,52.84c25.64,135,151.45,230.3,286.33,214.95c62.99-7.17,116.6-33.05,160.3-78.1
		c79.54-82,99.07-202.17,51.2-306.01C560.14,81.75,433.73,20.15,311.54,50.32C191.19,80.04,108.17,191.87,108.88,312.78z"/>
	<path class="st0" d="M372.03,55.14c110.16-1.58,207.89,74.45,232.98,178.03C634.93,356.69,559.44,477,437.94,510.7
		c-105.58,29.28-216.85-13.78-272.55-104.41c-69.99-113.87-27.04-263.26,93.24-324.32C295.68,63.17,329.65,55.13,372.03,55.14z
		 M366.15,425.87c55.05-0.55,109.75-25.3,144.79-68.35c4.75-5.83,9.11-11.97,13.02-18.4c29.73-48.84,33.03-110.5,7.99-161.99
		c-5.09-10.47-11.25-20.41-18.28-29.69c-57.44-75.8-169.91-93.95-250.92-40.48c-59.17,39.05-90.01,109.28-76.46,174.09
		c13.91,66.53,66.72,121.99,132.51,139.08C334.3,424.16,350.24,426.03,366.15,425.87z"/>
	<path class="st0" d="M227.28,246.34c0.79-57.56,19.78-99.63,60.6-130.42c55.59-41.94,132.09-34.77,180.53,16.06
		c57.43,60.25,56.46,159.71-3.03,217.88c-36.85,36.03-81.55,48.88-131.48,35.28c-53.79-14.65-86.23-52-101.19-104.7
		C228.99,267.32,228.34,253.33,227.28,246.34z M444.69,181.24c0.17-42.97-34.52-78.62-76.7-78.81
		c-45.04-0.21-80.01,33.58-80.15,77.42c-0.14,43.36,34.88,79,77.76,79.16C408.99,259.17,444.52,224.24,444.69,181.24z"/>
</g>
</svg>
