<?xml version="1.0" encoding="utf-8"?>
<!-- Generator: Adobe Illustrator 24.3.0, SVG Export Plug-In . SVG Version: 6.00 Build 0)  -->
<svg version="1.1" id="Layer_1" xmlns="http://www.w3.org/2000/svg" xmlns:xlink="http://www.w3.org/1999/xlink" x="0px" y="0px"
	 viewBox="0 0 1920.72 456.55" style="enable-background:new 0 0 1920.72 456.55;" xml:space="preserve">
<style type="text/css">
	.st0{fill:#052B4F;}
	.st1{fill:#FECA06;}
</style>
<g>
	<path class="st0" d="M1744.14,270.17c-0.51,1.2-0.74,1.49-0.74,1.78c0.14,33.49,0.11,66.99,0.56,100.48
		c0.15,11.33,4.34,15.29,15.58,17.07c1.64,0.26,3.29,0.51,4.94,0.74c7.81,1.07,7.81,1.07,7.12,9.4c-48.48,0-96.99,0-145.48,0
		c-1.65-8.2-1.49-8.35,5.98-9.21c2.62-0.3,5.25-0.93,7.76-1.75c4.29-1.39,7.14-4.6,6.28-9.01c-1.76-8.95-4.26-17.75-6.68-26.55
		c-0.22-0.79-2.04-1.62-3.12-1.63c-18.5-0.1-37-0.12-55.49,0.03c-1.28,0.01-3.29,1.17-3.7,2.27c-2.35,6.22-4.78,12.47-6.31,18.92
		c-2.28,9.58,1.48,14.91,11.13,17c1.62,0.35,3.27,0.65,4.92,0.8c7.53,0.68,7.53,0.66,6.56,9.17c-23.35,0-46.74,0-70.12,0
		c-2.12-7.76-1.68-8.53,6.11-9.17c11.08-0.91,18.02-7.04,21.79-17.13c5.66-15.12,11.26-30.27,16.81-45.43
		c10.18-27.83,20.35-55.67,30.37-83.56c0.9-2.5,0.7-5.39,1.09-8.69c10-4.48,21.14-9.46,32.32-14.47
		c5.88,18.17,11.94,36.98,18.05,55.78c9.67,29.76,19.37,59.52,29.08,89.27c0.83,2.53,1.9,4.98,2.76,7.5
		c6.04,17.65,22.62,18.56,33.81,15.5c5.76-1.57,7.53-6.3,7.84-11.55c0.75-12.97,1.54-25.95,1.8-38.94
		c0.58-28.82,0.79-57.65,1.31-86.48c0.06-3.54-1.11-5.78-3.77-8.02c-6.08-5.14-13.07-7.75-21.03-8.08c0-3.18,0-5.77,0-9.09
		c3.02,0,5.79,0,8.57,0c12.83,0,25.67,0.11,38.5-0.08c3.39-0.05,5.32,1.21,7.37,3.83c28.93,37.01,58.01,73.91,87.06,110.82
		c0.28,0.36,0.76,0.56,1.56,1.14c0.2-1.01,0.46-1.72,0.46-2.44c-0.03-27.16,0.06-54.33-0.18-81.49
		c-0.16-18.43-3.44-21.56-21.97-22.45c-1.82-0.09-3.65-0.2-5.92-0.32c0-2.87,0-5.56,0-8.65c22.29,0,44.53,0,67.15,0
		c0,2.72,0,5.43,0,8.44c-2.41,0.23-4.7,0.37-6.98,0.68c-7.55,1.04-11,4.2-12.19,11.67c-0.65,4.09-0.97,8.27-1.06,12.42
		c-0.94,45.32-1.81,90.64-2.69,135.96c-0.03,1.65,0,3.3,0,5.15c-5.98,1.07-10.21,0.66-14.47-4.69c-32.81-41.17-66.07-82-99.2-122.92
		C1746.64,272.94,1745.53,271.76,1744.14,270.17z M1634.22,332.7c-8.09-23.86-15.97-47.09-23.85-70.32
		c-0.38,0.01-0.76,0.02-1.14,0.03c-8.25,23.24-16.5,46.47-24.96,70.29C1601.15,332.7,1617.33,332.7,1634.22,332.7z"/>
	<path class="st0" d="M599.61,235.87c0-2.82,0-5.27,0-8.35c1.76-0.14,3.5-0.38,5.24-0.39c14.67-0.03,29.33,0.12,44-0.11
		c3.82-0.06,5.51,1.29,6.91,4.72c16.4,40.25,32.94,80.43,49.46,120.63c0.69,1.68,1.46,3.33,2.68,6.08c1.35-2.81,2.34-4.8,3.26-6.82
		c17.97-39.75,35.99-79.48,53.79-119.31c1.75-3.92,3.75-5.41,8.11-5.32c13.66,0.3,27.33,0.11,40.99,0.11c1.78,0,3.56,0,5.62,0
		c0,3.57,0,6.49,0,9.74c-3.48,0.51-6.91,0.93-10.31,1.52c-5.42,0.93-8.59,4.15-9.26,9.64c-0.38,3.14-0.83,6.3-0.81,9.45
		c0.24,37.99,0.55,75.98,0.87,113.97c0.02,1.82,0.22,3.66,0.51,5.46c1.39,8.59,4.14,11.45,12.55,13.21c7.19,1.5,7.19,1.5,6.36,9.6
		c-24.85,0-49.74,0-74.6,0c-1.55-8.47-1.54-8.48,6.48-9.25c10.38-0.99,13.86-4.52,14.52-15.33c0.39-6.32,0.4-12.66,0.41-18.99
		c0.04-26.83,0.02-53.66,0.03-80.49c0-1.31,0-2.62,0-3.94c-0.29-0.1-0.57-0.21-0.86-0.31c-0.59,1-1.27,1.96-1.75,3.01
		c-18.64,40.91-37.32,81.81-55.79,122.8c-1.77,3.92-3.75,5.42-8.12,5.24c-9.3-0.38-9.34-0.1-12.96-8.89
		c-16.58-40.17-33.14-80.35-49.71-120.52c-0.49-1.2-1-2.39-2.09-4.97c-0.39,2.41-0.67,3.37-0.68,4.34
		c-0.41,31.83-0.79,63.66-1.18,95.48c-0.02,1.5,0,3,0.03,4.5c0.24,13.37,3.09,16.62,16.5,18.14c6.9,0.78,2.81,5.64,4.1,9.13
		c-20.1,0-39.66,0-59.66,0c0-2.7,0-5.41,0-8.45c2.83-0.38,5.63-0.6,8.37-1.16c7.96-1.63,11.11-5.3,11.52-13.92
		c1.05-22.3,2.08-44.61,2.85-66.92c0.64-18.65,1.13-37.31,1.21-55.97c0.06-13.94-2.32-16.1-16.11-17.01
		C601.47,236.18,600.82,236.04,599.61,235.87z"/>
	<path class="st0" d="M1084.93,399.68c-1.07-8.12-1.07-8.12,6.29-9.47c9.87-1.81,12.93-5.05,12.97-15.07
		c0.14-39.49,0.11-78.98,0.14-118.47c0-1-0.06-2-0.1-3c-0.53-12.54-3.05-15.32-15.44-17.07c-1.29-0.18-2.56-0.44-4.06-0.7
		c0-2.8,0-5.38,0-8.37c24.41,0,48.63,0,72.82,0c2.09,7.85,1.74,8.38-6.08,9.45c-11.78,1.6-14.76,4.34-15.29,16.24
		c-0.65,14.81-0.61,29.64-0.84,44.47c-0.01,0.79,0.26,1.59,0.55,3.24c26.77,0,53.5,0,80.88,0c0-6.11,0.06-11.4-0.01-16.7
		c-0.15-10.16-0.16-20.33-0.63-30.48c-0.55-11.57-3.88-14.98-15.15-16.62c-0.49-0.07-0.99-0.14-1.49-0.2
		c-7.58-1.01-7.58-1.01-6.38-9.38c24.47,0,49.01,0,73.53,0c2.18,7.53,1.72,8.32-5.47,9.5c-9.95,1.63-12.55,4.18-13.23,14.27
		c-0.54,7.97-0.67,15.98-0.62,23.97c0.2,33.32,0.44,66.65,0.87,99.97c0.13,10.06,3.26,13.25,13.1,15c7.01,1.24,7.08,1.37,5.6,9.47
		c-24.49,0-49.05,0-74.3,0c0-1.95-0.45-3.89,0.13-5.44c0.54-1.45,1.96-3.1,3.37-3.58c2.48-0.84,5.25-0.76,7.87-1.24
		c8.47-1.55,11.72-4.68,12.13-13.28c0.57-11.98,0.53-23.98,0.67-35.98c0.08-6.45,0.01-12.9,0.01-20.05c-27.43,0-54.15,0-81.46,0
		c0,5.84-0.06,10.8,0.01,15.75c0.18,12.49,0.1,25,0.72,37.47c0.6,11.99,3.78,15.04,15.52,16.84c7.48,1.15,7.48,1.15,6.31,9.45
		C1133.7,399.68,1109.48,399.68,1084.93,399.68z"/>
	<path class="st0" d="M1504.56,242.22c2.73-3.03,5.25-5.83,7.78-8.62c0.46,0.08,0.92,0.17,1.37,0.25c0,17.16,0,34.31,0,52.15
		c-1.18,0.25-3.22,0.67-5.51,1.15c-1.4-3.29-2.61-6.36-3.99-9.34c-5.34-11.5-12.43-21.8-22.61-29.44
		c-22.67-17.03-55.72-10.59-72.01,13.75c-7.99,11.93-11.59,25.36-12.88,39.47c-1.88,20.44,0.05,40.36,9.87,58.77
		c9.38,17.6,23.48,28.4,44.27,28.13c11.28-0.15,20.64-4.94,27.97-13.41c1.78-2.05,3.65-4.93,3.67-7.44
		c0.07-8.57-0.22-17.21-1.36-25.69c-0.33-2.43-3.7-4.85-6.2-6.46c-1.98-1.27-4.73-1.45-7.19-1.84c-7.86-1.26-7.87-1.21-6.94-9.51
		c22.82,0,45.69,0,68.88,0c0,2.68,0,5.27,0,7.96c-0.16,0.14-0.39,0.5-0.66,0.53c-11.33,1.29-13.72,5.17-14.37,16.59
		c-0.59,10.3-0.45,20.65-0.84,30.97c-0.07,1.74-0.71,4.26-1.95,5.04c-31.4,19.83-65.05,25.83-100.18,12.56
		c-30.99-11.71-46.25-36.74-51.3-68.48c-2.66-16.7-1.23-33.26,4.2-49.33c14.4-42.67,55.53-65.37,100.74-54.84
		c10.53,2.45,20.4,7.82,30.48,12.06C1498.79,238.46,1501.51,240.44,1504.56,242.22z"/>
	<path class="st0" d="M1055.98,243.73c3.84-3.45,7.29-6.54,11.29-10.13c0.22,1.85,0.46,3.06,0.49,4.28
		c0.25,13.83,0.48,27.66,0.7,41.49c0.11,6.61-0.03,6.74-7.45,6.66c-3.42-11.07-9.97-20.43-17.86-28.92
		c-25.26-27.18-65.95-22.94-83.05,10.02c-16.03,30.91-14.9,62.84,4.04,92.28c20.63,32.09,66.99,33.22,90.74,3.36
		c2.16-2.71,4.19-5.53,6.52-8.61c3.37,2.57,6.5,4.95,9.83,7.49c-14.18,24.92-34.81,39.8-63.35,42.51
		c-22.79,2.17-44.34-1.9-62.85-16.16c-24.73-19.05-33.94-45.37-33.26-75.61c0.5-22.23,6.88-42.71,21.21-60.13
		c27.01-32.85,79.47-39.29,115.07-14.3C1050.61,239.76,1053.13,241.66,1055.98,243.73z"/>
	<path class="st0" d="M908.79,391.4c0,2.76,0,5.37,0,8.33c-23.72,0-47.29,0-71.53,0c0-1.92-0.43-3.83,0.13-5.4
		c0.52-1.47,1.87-2.97,3.25-3.71c1.54-0.82,3.55-0.72,5.33-1.13c7.47-1.75,10.47-5.07,11.32-12.61c0.32-2.81,0.63-5.65,0.62-8.47
		c-0.14-37.16-0.32-74.31-0.53-111.47c-0.01-2.16-0.13-4.34-0.46-6.47c-1.32-8.47-4.25-11.44-12.68-13.11
		c-7.34-1.45-7.34-1.45-6.72-9.71c23.61,0,47.27,0,71.21,0c0,2.74,0,5.33,0,8.28c-3.14,0.52-6.23,0.98-9.3,1.56
		c-5.32,1.01-8.85,4.12-9.5,9.54c-0.71,5.93-1.2,11.94-1.21,17.91c-0.03,34.66,0.11,69.32,0.19,103.98c0,1.17,0.05,2.33,0.1,3.5
		c0.58,13.3,3.51,16.48,16.75,18.25C906.74,390.79,907.67,391.12,908.79,391.4z"/>
	<path class="st0" d="M1353.7,391.17c0,3.08,0,5.68,0,8.59c-23.81,0-47.37,0-71.23,0c0-2.93,0-5.66,0-8.61
		c2.91-0.57,5.67-1.03,8.39-1.66c7.58-1.75,10.71-5.3,11.47-13.06c0.31-3.15,0.51-6.32,0.5-9.47c-0.1-36.3-0.26-72.6-0.4-108.9
		c0-0.83-0.02-1.67-0.06-2.5c-0.61-13.28-3.37-16.43-16.47-18.82c-0.98-0.18-1.95-0.38-3.33-0.66c0-2.71,0-5.42,0-8.57
		c23.49,0,47.04,0,70.98,0c0,2.7,0,5.41,0,8.45c-2.97,0.48-5.9,0.91-8.81,1.44c-5.51,0.99-9.19,4.1-9.82,9.78
		c-0.69,6.27-1.25,12.6-1.24,18.9c0.01,34.8,0.21,69.6,0.35,104.4c0,1.17,0.05,2.33,0.1,3.5c0.54,11.22,4.18,15.18,15.22,16.55
		C1350.65,390.69,1351.94,390.91,1353.7,391.17z"/>
	<path class="st0" d="M1675.11,113.04c1.32-17.07,6.59-32.35,19.82-43.56c19.08-16.17,40.98-17.8,63.31-8.54
		c22.33,9.26,32.49,27.78,33.59,51.28c0.34,7.21-0.54,14.73-2.31,21.75c-6.55,26.09-28.58,41.95-56.47,41.36
		c-27.65-0.59-50.17-18.64-55.75-44.99C1676.11,124.66,1675.82,118.81,1675.11,113.04z M1767.15,111.25
		c-0.19-9.66-2.51-23.23-12.13-34.59c-11.98-14.15-30.37-14.18-42.31-0.02c-7.16,8.49-10.29,18.53-11.15,29.37
		c-1.39,17.38,0.66,33.96,12.2,48.06c11.96,14.61,30.12,14.45,41.79-0.35C1764.31,142.61,1767.31,129.7,1767.15,111.25z"/>
	<path class="st0" d="M831.96,172.26c-4.67,1.57-7.31,0.59-9.9-2.65c-21.65-27.04-43.48-53.94-65.25-80.88
		c-0.7-0.87-1.44-1.71-2.71-3.21c-0.17,1.97-0.37,3.2-0.38,4.42c-0.01,18.49-0.07,36.98,0.03,55.47c0.1,17.31,0.69,17.9,18.17,20.43
		c0,1.65,0,3.37,0,5.4c-15.11,0-30.19,0-45.55,0c0-1.79,0-3.37,0-5.04c0.45-0.2,0.88-0.53,1.33-0.57
		c11.47-1.12,12.94-2.43,13.24-14.1c0.65-25.64,1.13-51.29,1.43-76.94c0.02-2.08-1.35-4.99-3.02-6.12
		c-3.76-2.53-8.1-4.19-13.07-6.62c-0.02-0.4-0.12-1.99-0.26-4.42c7.04,0,13.87,0.65,20.51-0.15c9.81-1.18,15.59,2.48,21.53,10.58
		c16.15,22,33.72,42.96,50.74,64.32c0.36,0.46,0.92,0.76,1.39,1.13c0.38-0.44,0.75-0.66,0.75-0.89
		c-0.04-18.98,0.18-37.98-0.28-56.95c-0.22-9.17-2.74-11.08-11.93-11.87c-1.96-0.17-3.93-0.3-6.26-0.47
		c-0.1-1.82-0.18-3.4-0.29-5.34c14.9,0,29.48,0,44.47,0c0.12,1.57,0.23,3.14,0.34,4.5c-0.56,0.43-0.79,0.77-1.08,0.81
		c-10.96,1.67-12.37,3.3-12.66,16.62c-0.54,24.98-0.89,49.96-1.28,74.95C831.88,160.59,831.96,166.54,831.96,172.26z"/>
	<path class="st0" d="M1138.58,62.98c0-1.89,0-3.36,0-4.77c0.36-0.25,0.63-0.6,0.9-0.59c20.3,0.21,40.64-0.3,60.87,0.92
		c15.53,0.94,24.59,9.8,26.5,22.68c2.1,14.17-4.94,27.63-17.72,33.89c-1.31,0.64-2.63,1.27-4.57,2.21
		c9.06,15.25,17.65,30.42,27.07,45.06c2.17,3.37,7.19,4.87,10.87,7.3c0.99,0.65,1.83,1.52,2.74,2.28c-1.09,0.71-2.15,2-3.26,2.05
		c-21.32,0.88-31.69-4.36-40.5-20.94c-4.05-7.64-7.69-15.5-11.36-23.33c-3.5-7.48-9.06-10.77-18.68-8.78
		c0.66,12.41,0.89,25.14,2.19,37.77c0.64,6.28,6.77,6.38,12.04,6.98c0,1.82,0,3.55,0,5.83c-14.25,0-28.36,0.01-42.47-0.01
		c-1.46,0-2.91-0.18-4.57-0.29c0-1.89,0-3.49,0-5.02c0.38-0.27,0.62-0.57,0.9-0.62c11.4-2.13,12.58-3.3,12.66-15.01
		c0.14-23.81,0.06-47.63,0.06-71.44c0-1.33-0.08-2.66-0.17-3.99c-0.62-8.57-2.17-10.27-10.6-11.64
		C1140.66,63.39,1139.86,63.22,1138.58,62.98z M1172.08,111.39c5.06,0,9.68,0.38,14.21-0.08c10.63-1.08,19.67-10.1,20.16-19.65
		c0.64-12.42-5.56-20.87-17.72-23.36c-4.34-0.89-8.91-0.83-13.37-0.77c-1.1,0.01-3.12,1.71-3.13,2.66
		C1172.01,83.47,1172.08,96.75,1172.08,111.39z"/>
	<path class="st0" d="M716.79,57.68c0,1.82,0,3.39,0,5.24c-1.61,0.19-3.06,0.4-4.52,0.54c-4.84,0.47-7.79,3.13-8.13,7.92
		c-0.78,10.79-1.27,21.6-1.89,32.39c-0.58,9.97-0.65,20.01-1.89,29.9c-3.18,25.45-18.62,39.67-44.3,40.42
		c-7.5,0.22-15.37-0.98-22.56-3.18c-15.25-4.68-24.07-15.55-26.14-31.47c-0.71-5.43-0.94-10.95-1.01-16.44
		c-0.2-14.82-0.14-29.65-0.28-44.47c-0.12-11.81-1.41-13.29-13.1-15.66c0-1.53,0-3.12,0-5.09c16.77,0,33.5,0,50.66,0
		c0.13,1.5,0.26,3.07,0.43,5.09c-2.34,0.36-4.41,0.77-6.5,1c-5.07,0.55-8.28,3.46-8.27,8.39c0.07,21.95-0.47,43.97,1.13,65.82
		c1.05,14.41,10.1,22.55,22.01,24.3c17.41,2.55,30.95-6.1,34.44-23.45c2.12-10.53,2.51-21.46,3.06-32.24
		c0.47-9.3,0.14-18.65,0.04-27.97c-0.12-11.73-2.09-13.88-13.62-15.27c-0.65-0.08-1.3-0.23-2.31-0.41c0-1.73,0-3.44,0-5.36
		C688.37,57.68,702.44,57.68,716.79,57.68z"/>
	<path class="st0" d="M1037.92,62.77c0-1.51,0-3.1,0-5.03c26.9,0,53.62,0,81.02,0c0,8.62,0,17.19,0,26.14
		c-2.59,1.08-4.29,0.65-5.03-3.07c-1.55-7.83-6.66-12.37-14.54-12.76c-9.1-0.44-18.24-0.1-27.77-0.1c0,12.87,0,25.93,0,40.24
		c7.73-0.51,15.49-0.54,23.04-1.8c2.4-0.4,4.51-3.88,6.26-6.31c0.98-1.36,0.96-3.45,1.41-5.34c1.6,0,3.02,0,4.68,0
		c0,12.34,0,24.41,0,36.74c-1.57,0-2.84,0-4.4,0c-0.18-0.76-0.43-1.51-0.54-2.29c-1.21-8.56-3.13-10.52-11.79-11.09
		c-5.31-0.35-10.65-0.24-15.98-0.3c-0.8-0.01-1.6,0.18-2.76,0.32c0,11.78-0.22,23.37,0.11,34.94c0.12,4.33,3.54,7.22,7.62,7.39
		c9.58,0.39,19.28,0.8,28.78-0.25c7.62-0.84,11.2-7.35,12.89-14.33c0.88-3.62,2.62-4.14,5.9-3.07c-0.79,9.39-1.57,18.77-2.38,28.44
		c-28.77,0-57.35,0-86.37,0c0-1.67,0-3.39,0-5.15c0.22-0.15,0.45-0.45,0.74-0.5c11.31-2.09,12.29-3.03,12.37-14.64
		c0.16-23.82,0.28-47.64,0.08-71.46C1051.13,66.04,1050.83,66.05,1037.92,62.77z"/>
	<path class="st0" d="M1323.1,91.29c-1.84,0.44-3.27,0.78-4.47,1.07c-2.68-5.2-4.8-10.45-7.88-15.05
		c-6.67-9.97-18.61-14.25-30.28-11.42c-5.84,1.41-10.7,4.29-12.17,10.51c-1.58,6.68,0.15,12.81,5.8,16.93
		c3.84,2.81,8.26,4.97,12.67,6.82c5.36,2.25,11.05,3.7,16.48,5.81c16.59,6.43,25.27,19.59,23.79,35.77
		c-1.44,15.76-13.46,28.4-30.13,31.7c-18.28,3.62-33.78-2.33-47.62-13.88c-0.81-0.67-1.58-1.84-1.67-2.84
		c-0.57-6.62-0.94-13.26-1.37-19.81c3.95-2.37,5.59-1.01,7.1,2.81c5.21,13.18,13.64,23.11,28.83,24.2
		c5.17,0.37,10.77-0.23,15.67-1.89c11.56-3.92,15.22-17.9,6.76-26.74c-4.09-4.27-9.91-7.13-15.38-9.74
		c-6.58-3.15-13.8-4.93-20.4-8.05c-14.69-6.96-21-19.58-18.46-35.68c2.17-13.7,13.92-24.31,28.96-26.32
		c9.14-1.22,18.05-0.43,26.31,3.66c4.73,2.34,8.94,4.58,13.69-2C1320.69,69.51,1321.89,80.33,1323.1,91.29z"/>
	<path class="st0" d="M1508.59,57.47c19.83,0,39.13,0,58.85,0c0,1.81,0,3.5,0,5.58c-3.3,0.26-6.61,0.33-9.85,0.8
		c-6.95,1.01-8.69,4.02-5.76,10.35c1.74,3.76,3.95,7.32,6.11,10.87c4.84,7.96,9.79,15.86,14.7,23.78c0.06,0.09,0.29,0.08,1.44,0.35
		c6.36-12.05,13.1-24.21,19.21-36.67c2.32-4.74,0.25-7.57-4.93-8.63c-2.09-0.43-4.24-0.57-6.73-0.89c-0.09-1.73-0.17-3.32-0.27-5.32
		c14.86,0,29.41,0,44.33,0c0.09,1.68,0.17,3.26,0.28,5.47c-11.7-0.23-17.12,7.96-22.29,16.25c-7.57,12.15-14.97,24.42-22.3,36.72
		c-0.88,1.47-1.29,3.43-1.31,5.17c-0.1,9.66-0.13,19.33,0.02,28.99c0.19,11.99,2.34,14.21,14.15,15.19c0.8,0.07,1.59,0.23,2.63,0.39
		c0,1.82,0,3.41,0,5.34c-18.43,0-36.82,0-55.49,0c0-1.79,0-3.38,0-5.32c2.9-0.47,5.81-0.96,8.72-1.42c5.02-0.78,7.76-3.74,7.88-8.77
		c0.23-9.99,0.36-19.99,0.29-29.98c-0.01-1.67-1.01-3.48-1.96-4.96c-9.53-14.86-19.18-29.64-28.71-44.5
		c-4.5-7.01-8.92-13.98-18.99-12.97C1508.59,61.15,1508.59,59.56,1508.59,57.47z"/>
	<path class="st0" d="M1394.33,57.68c34.95,0,69.2,0,104.19,0c0,10.35,0,20.57,0,31.1c-3.21,1.05-4.9,0.47-5.32-3.92
		c-1.09-11.44-5.61-15.32-17.23-15.54c-6.15-0.12-12.3-0.02-19-0.02c-0.15,1.81-0.4,3.38-0.4,4.95c-0.02,25.83-0.02,51.66,0,77.49
		c0,1.66,0.08,3.33,0.25,4.99c0.62,6.28,2.91,8.82,9.24,9.83c2.78,0.45,5.02,0.89,3.51,4.74c-15.22,0-30.5,0-45.77,0
		c-0.8-3.93-0.8-3.93,2.94-4.66c6.67-1.3,9.44-3.94,9.48-10.75c0.17-28.33,0.07-56.65,0.05-84.98c0-0.3-0.21-0.61-0.32-0.93
		c-8.58,0-17.18-0.44-25.72,0.15c-5.93,0.41-8.54,5.26-9.84,10.59c-0.63,2.57-0.93,5.22-1.43,8.12c-1.66,0-3.22,0-4.63,0
		C1394.33,78.41,1394.33,68.18,1394.33,57.68z"/>
	<path class="st0" d="M1798.27,172.09c0-2.07,0-3.69,0-5.24c12.76-3.58,13.06-3.58,13.16-16.94c0.18-24.82,0.08-49.64-0.15-74.46
		c-0.08-8.19-1.71-9.86-9.83-10.89c-4.26-0.54-3.57-2.92-3.05-5.94c27.6,0,55.18,0,83.29,0c0.58,9,1.16,17.89,1.73,26.75
		c-4.03,1.54-5.4,0.14-6.27-3.35c-2.3-9.21-6.29-12.85-15.59-13.4c-8.8-0.52-17.65-0.28-26.47-0.06c-1.23,0.03-3.43,1.85-3.45,2.87
		c-0.24,12.13-0.16,24.27-0.16,36.39c8.96,0,17.52,0.22,26.06-0.1c3.73-0.14,5.73-3.07,6.57-6.6c0.42-1.77,0.68-3.57,1.06-5.58
		c1.6,0,3.02,0,4.72,0c0,12.32,0,24.41,0,36.74c-1.64,0-3.07,0-4.45,0c-3.13-12.29-6.32-12.98-18.69-13.66
		c-4.8-0.26-9.63-0.04-15.33-0.04c0,2.6-0.01,4.85,0,7.1c0.03,9.5-0.2,19,0.17,28.49c0.35,8.88,1.71,10.09,10.31,11.84
		c0.95,0.19,1.9,0.42,3,0.66c0,1.81,0,3.43,0,5.42C1829.43,172.09,1814.02,172.09,1798.27,172.09z"/>
	<path class="st0" d="M992.79,62.99c0-1.89,0-3.34,0-5.18c13,0,25.9,0,39.17,0c0,1.69,0,3.4,0,5.5c-9.36,0.7-12.99,7.69-16.11,15.07
		c-12.89,30.51-25.7,61.06-38.66,91.55c-0.66,1.55-2.19,3.27-3.71,3.8c-2.92,1.02-4.29-0.98-5.28-3.67
		c-10.27-27.97-20.63-55.9-30.98-83.83c-1.27-3.43-2.63-6.83-3.9-10.27c-2.54-6.87-6.59-12-14.84-12.56c0-1.97,0-3.69,0-5.7
		c17.64,0,35.25,0,53.26,0c0,1.7,0,3.37,0,5.39c-2.25,0.19-4.38,0.3-6.49,0.57c-7.15,0.91-9.3,3.88-7.87,10.85
		c0.3,1.47,0.67,2.93,1.15,4.35c7.23,21.44,14.48,42.86,22.01,65.14c1-1.65,1.7-2.49,2.07-3.46c7.49-19.24,14.94-38.48,22.39-57.74
		c0.54-1.4,0.97-2.83,1.43-4.26c3.28-10.26,0.65-14.18-10.17-15.16C995.28,63.29,994.3,63.16,992.79,62.99z"/>
	<path class="st0" d="M906.71,166.13c0.07,1.5,0.14,3.1,0.24,5.06c-15.72,0-31.14,0-46.96,0c0-1.67,0-3.39,0-5.29
		c0.65-0.17,1.26-0.36,1.88-0.48c9.51-1.88,11.28-3.9,11.3-13.78c0.05-23.65,0.07-47.31-0.04-70.96
		c-0.06-13.27-0.86-14.19-13.26-17.86c0-1.51,0-3.11,0-5.05c15.54,0,30.94,0,46.76,0c0.12,1.57,0.24,3.14,0.34,4.47
		c-0.55,0.48-0.77,0.83-1.04,0.89c-11.1,2.31-12.23,3.18-12.33,14.79c-0.21,24.15-0.14,48.3,0.16,72.45
		C893.9,162.9,894.61,163.37,906.71,166.13z"/>
	<path class="st0" d="M1335.37,62.87c0-1.54,0-3.15,0-5.11c15.41,0,30.81,0,46.59,0c0.1,1.63,0.2,3.21,0.28,4.55
		c-0.54,0.47-0.76,0.82-1.03,0.87c-10.91,2.11-12.07,3.17-12.13,14.38c-0.14,24.65-0.07,49.3,0.08,73.96
		c0.07,10.85,1.8,12.62,12.6,14.3c0.15,0.87,0.39,1.81,0.44,2.76c0.04,0.79-0.14,1.6-0.26,2.66c-15.58,0-30.98,0-46.62,0
		c0-1.88,0-3.47,0-5c0.38-0.27,0.61-0.56,0.9-0.62c10.84-2.14,12.26-3.4,12.33-14.41c0.16-23.82,0.1-47.64-0.18-71.46
		C1348.23,66.5,1347.86,66.4,1335.37,62.87z"/>
	<path class="st1" d="M386.76,205.98c-4.03,5.27-7.78,10-11.35,14.87c-29.46,40.18-58.9,80.37-88.27,120.61
		c-2.05,2.81-2.89,2.5-4.86-0.25c-18.48-25.72-37.15-51.3-55.77-76.92c-14.04-19.32-28.1-38.63-42.59-58.54
		c0,29.73-0.03,58.72,0.04,87.72c0.01,4.12-1.78,9.41,0.77,12.06c2.58,2.68,7.9,0.75,12.01,0.84c7.66,0.16,15.33,0.18,22.99-0.02
		c3.29-0.09,4.65,0.59,4.64,4.31c-0.15,30.66-0.12,61.32-0.03,91.97c0.01,3.25-0.94,4.26-4.26,4.25c-59.66-0.09-119.31-0.1-178.97,0
		c-3.66,0.01-4.43-1.4-4.42-4.71c0.1-30.49,0.12-60.98-0.02-91.47c-0.02-3.74,1.43-4.4,4.69-4.35c9.83,0.16,19.67-0.08,29.49,0.14
		c3.31,0.07,4.25-0.9,4.25-4.19c-0.09-49.32-0.1-98.64,0.01-147.96c0.01-3.43-1.19-4.16-4.33-4.1c-9.83,0.18-19.67-0.09-29.49,0.15
		c-3.61,0.09-4.83-0.72-4.81-4.62c0.17-30.66,0.16-61.32,0.01-91.97c-0.02-3.42,1.04-4.05,4.16-4.04
		c29.99,0.11,59.99,0.06,89.98,0.06c16.5,0,32.99,0.07,49.49-0.07c2.82-0.02,4.49,0.91,6.11,3.17
		c31.98,44.67,64.03,89.29,96.07,133.91c1.79,2.49,2.97,3.82,5.61,0.13c16.12-22.55,32.66-44.8,48.86-67.29
		c15.32-21.28,30.44-42.71,45.54-64.15c2.67-3.79,5.32-5.92,10.62-5.88c44.99,0.31,89.98,0.17,134.97,0.18
		c7.71,0,6.28-0.14,6.29,6.52c0.04,29.49-0.07,58.98,0.11,88.47c0.03,4.22-0.77,5.82-5.39,5.62c-9.48-0.4-18.99,0.01-28.49-0.2
		c-3.3-0.07-4.22,0.94-4.22,4.21c0.09,49.32,0.1,98.64-0.01,147.96c-0.01,3.47,1.24,4.13,4.36,4.07c9.83-0.17,19.66,0.05,29.49-0.13
		c3.23-0.06,4.25,0.85,4.24,4.19c-0.12,30.66-0.13,61.32,0,91.97c0.02,3.66-1.33,4.38-4.64,4.37
		c-59.32-0.08-118.64-0.09-177.97,0.02c-3.78,0.01-4.75-1.09-4.73-4.78c0.14-30.32,0.17-60.65-0.03-90.97
		c-0.03-4.24,1.48-4.89,5.16-4.81c10.49,0.21,21,0.02,31.49,0.12c2.58,0.02,3.92-0.41,3.91-3.49c-0.1-31.66-0.07-63.31-0.09-94.97
		C387.39,207.58,387.14,207.16,386.76,205.98z"/>
</g>
</svg>
